<svg xmlns="http://www.w3.org/2000/svg" width="738.872" height="286.667" viewBox="0 0 738.872 286.667">
  <g id="Group_48907" data-name="Group 48907" transform="translate(-567.201 -727.615)">
    <path id="Path_8254" data-name="Path 8254" d="M-364.444,0V-7.523l17.156-1.969v-63q-1.477.492-3.973,1.09t-5.238,1.125q-2.742.527-5.309.879t-4.254.492l-1.828-8.789a58.561,58.561,0,0,0,7.523-2.215,66.36,66.36,0,0,0,7.242-3.164,71.042,71.042,0,0,0,6.68-3.867,61.3,61.3,0,0,0,5.766-4.254h.07l9.141,1.758V-9.422l15.258,1.9V0Zm78.525,22.852-3.3-6.609a60.65,60.65,0,0,0,15.152-7.559,59.566,59.566,0,0,0,11.391-10.3,58.768,58.768,0,0,0,8.016-12.27,70.072,70.072,0,0,0,4.957-13.535,25.741,25.741,0,0,1-3.9,2.742,34.445,34.445,0,0,1-5.027,2.391,36.471,36.471,0,0,1-5.871,1.688,32.738,32.738,0,0,1-6.5.633,36.918,36.918,0,0,1-13.711-2.426,29.426,29.426,0,0,1-10.441-6.891,30.784,30.784,0,0,1-6.68-10.723A39.256,39.256,0,0,1-304.2-53.93a41,41,0,0,1,2.5-14.2,35.624,35.624,0,0,1,7.242-11.988,35.077,35.077,0,0,1,11.637-8.262,38.082,38.082,0,0,1,15.75-3.094,38.383,38.383,0,0,1,16.594,3.3,31.8,31.8,0,0,1,11.5,9.035,38.088,38.088,0,0,1,6.715,13.43,60.291,60.291,0,0,1,2.18,16.488,76.588,76.588,0,0,1-2.145,18.352,76.007,76.007,0,0,1-5.977,16.277,73.535,73.535,0,0,1-9.07,13.852,74.019,74.019,0,0,1-11.426,11.109,65.849,65.849,0,0,1-13.113,7.98A60.5,60.5,0,0,1-285.919,22.852Zm16.8-52.312a34,34,0,0,0,7.453-.773,34.283,34.283,0,0,0,6.188-1.969,24.783,24.783,0,0,0,4.676-2.6,15.984,15.984,0,0,0,2.918-2.6q.211-1.828.352-3.586t.211-3.586a122.031,122.031,0,0,0-.422-14.449,43.333,43.333,0,0,0-2.848-12.445,20.934,20.934,0,0,0-6.4-8.754q-4.184-3.3-11-3.3a15.577,15.577,0,0,0-8.754,2.426,20.66,20.66,0,0,0-6.117,6.223,28.978,28.978,0,0,0-3.621,8.438,36.285,36.285,0,0,0-1.2,9.07A49.049,49.049,0,0,0-286.2-44.4a25.553,25.553,0,0,0,4.008,8.648,14.918,14.918,0,0,0,5.906,4.816A17.7,17.7,0,0,0-269.114-29.461Zm58.767,45.633q2.039.141,4.113.211t4.043.07a38.385,38.385,0,0,0,13.5-2.355,33.319,33.319,0,0,0,11.039-6.68A31.354,31.354,0,0,0-170.2-3.059,33.4,33.4,0,0,0-167.456-16.8,35.469,35.469,0,0,0-168.9-27.562a19.039,19.039,0,0,0-4.113-7.348,16.051,16.051,0,0,0-6.434-4.184,25.206,25.206,0,0,0-8.473-1.336,45.715,45.715,0,0,0-4.605.246q-2.426.246-4.922.7t-4.887,1.125q-2.391.668-4.5,1.441l-4.219-3.094L-203.6-90.07h38.18l1.617-2.742h10.2l-2.742,16.1h-36.07l-6.68,30.234a58.487,58.487,0,0,1,10.2-2.953,51.608,51.608,0,0,1,9.7-.984,35.053,35.053,0,0,1,11.988,1.969,24.347,24.347,0,0,1,9.316,5.941,27.279,27.279,0,0,1,6.012,9.879,40.564,40.564,0,0,1,2.145,13.852,38.247,38.247,0,0,1-3.586,16.066,42.853,42.853,0,0,1-10.2,13.887,51.212,51.212,0,0,1-15.961,9.738,56.445,56.445,0,0,1-20.883,3.691q-2.391,0-4.992-.211a35.6,35.6,0,0,1-5.062-.773ZM-136.111-6.4a139.481,139.481,0,0,0,18.422-12.445,116.092,116.092,0,0,0,15.258-14.484A74.852,74.852,0,0,0-92.025-48.48a32.289,32.289,0,0,0,3.867-14.59,19.251,19.251,0,0,0-1.266-7.137,15.221,15.221,0,0,0-3.551-5.414,15.514,15.514,0,0,0-5.555-3.41,21.068,21.068,0,0,0-7.277-1.2,30.652,30.652,0,0,0-8.578,1.125,34.8,34.8,0,0,0-6.961,2.813,34.913,34.913,0,0,0-5.449,3.621q-2.355,1.934-4.043,3.48l-4.852-6.891a44.8,44.8,0,0,1,5.625-5.2,47.163,47.163,0,0,1,7.91-5.027,51.685,51.685,0,0,1,9.809-3.762,42.057,42.057,0,0,1,11.25-1.477,37.2,37.2,0,0,1,13.5,2.215,27.84,27.84,0,0,1,9.457,5.871,22.957,22.957,0,0,1,5.555,8.367,27.25,27.25,0,0,1,1.793,9.773,32.977,32.977,0,0,1-3.832,15.012,71.542,71.542,0,0,1-10.2,14.8,111.009,111.009,0,0,1-14.7,13.816,170.435,170.435,0,0,1-17.4,12.059l41.7-3.3,4.992-10.336,8.156,1.758L-65.587,0h-68.2Zm91.462-31.219V-49.008H17.578v11.391ZM36.97-6.4A139.481,139.481,0,0,0,55.392-18.844,116.092,116.092,0,0,0,70.65-33.328,74.852,74.852,0,0,0,81.056-48.48a32.289,32.289,0,0,0,3.867-14.59,19.251,19.251,0,0,0-1.266-7.137,15.221,15.221,0,0,0-3.551-5.414,15.514,15.514,0,0,0-5.555-3.41,21.068,21.068,0,0,0-7.277-1.2A30.652,30.652,0,0,0,58.7-79.1a34.8,34.8,0,0,0-6.961,2.813,34.913,34.913,0,0,0-5.449,3.621q-2.355,1.934-4.043,3.48l-4.852-6.891a44.8,44.8,0,0,1,5.625-5.2,47.163,47.163,0,0,1,7.91-5.027,51.685,51.685,0,0,1,9.809-3.762,42.057,42.057,0,0,1,11.25-1.477,37.2,37.2,0,0,1,13.5,2.215,27.84,27.84,0,0,1,9.457,5.871,22.957,22.957,0,0,1,5.555,8.367,27.25,27.25,0,0,1,1.793,9.773,32.977,32.977,0,0,1-3.832,15.012,71.542,71.542,0,0,1-10.2,14.8,111.009,111.009,0,0,1-14.7,13.816,170.435,170.435,0,0,1-17.4,12.059l41.7-3.3,4.992-10.336,8.156,1.758L107.494,0h-68.2ZM156.839,1.2Q147,1.2,140.1-2.566a31.176,31.176,0,0,1-11.18-10.2A43.889,43.889,0,0,1,122.737-27.7a79.744,79.744,0,0,1-1.828-18,56.894,56.894,0,0,1,3.234-19.055,43.578,43.578,0,0,1,8.3-14.168A34.918,34.918,0,0,1,144.57-87.75a36.245,36.245,0,0,1,14.66-3.023q10.055,0,16.84,3.41A28.558,28.558,0,0,1,187-77.906a39.547,39.547,0,0,1,5.906,14.273A82.939,82.939,0,0,1,194.6-45.7a61.294,61.294,0,0,1-2.988,19.266,45.91,45.91,0,0,1-7.98,14.766A35.986,35.986,0,0,1,171.71-2.18,33.208,33.208,0,0,1,156.839,1.2Zm1.055-8.016a16.711,16.711,0,0,0,9.563-2.566,17.361,17.361,0,0,0,6.012-7.453A42.175,42.175,0,0,0,176.6-28.793a125.7,125.7,0,0,0,.914-16,111.244,111.244,0,0,0-.984-15.434,43.864,43.864,0,0,0-3.27-12.023,19.571,19.571,0,0,0-6.012-7.8,15.1,15.1,0,0,0-9.281-2.777,17.609,17.609,0,0,0-9.633,2.461,17.336,17.336,0,0,0-6.187,7.137,37.412,37.412,0,0,0-3.27,11.391,109.618,109.618,0,0,0-.949,15.223,105.664,105.664,0,0,0,1.055,15.293,50.22,50.22,0,0,0,3.41,12.656,22.983,22.983,0,0,0,6.152,8.648A14.019,14.019,0,0,0,157.894-6.82Zm48.5.422a139.481,139.481,0,0,0,18.422-12.445,116.092,116.092,0,0,0,15.258-14.484A74.852,74.852,0,0,0,250.481-48.48a32.289,32.289,0,0,0,3.867-14.59,19.251,19.251,0,0,0-1.266-7.137,15.221,15.221,0,0,0-3.551-5.414,15.514,15.514,0,0,0-5.555-3.41,21.068,21.068,0,0,0-7.277-1.2,30.652,30.652,0,0,0-8.578,1.125,34.8,34.8,0,0,0-6.961,2.813,34.913,34.913,0,0,0-5.449,3.621q-2.355,1.934-4.043,3.48l-4.852-6.891a44.8,44.8,0,0,1,5.625-5.2,47.163,47.163,0,0,1,7.91-5.027,51.685,51.685,0,0,1,9.809-3.762,42.057,42.057,0,0,1,11.25-1.477,37.2,37.2,0,0,1,13.5,2.215,27.84,27.84,0,0,1,9.457,5.871,22.957,22.957,0,0,1,5.555,8.367,27.25,27.25,0,0,1,1.793,9.773,32.977,32.977,0,0,1-3.832,15.012,71.542,71.542,0,0,1-10.2,14.8,111.009,111.009,0,0,1-14.7,13.816,170.435,170.435,0,0,1-17.4,12.059l41.7-3.3,4.992-10.336,8.156,1.758L276.919,0h-68.2Zm80.494-.984q4.992-9.07,10.547-20.215t11.285-23.168q5.73-12.023,11.32-24.223T330.623-98.3h3.938l12.094,7.172L307.28-18.07l-5.906,9L336.6-11.18l.211-26.156,13.781-1.477v26.789l20.391-1.2V0H350.592V26.438H336.6V0H291.038Z" transform="translate(935.09 987.844)" fill="#fff"/>
    <text id="L" transform="matrix(0.966, 0.259, -0.259, 0.966, 601.768, 792.653)" fill="#fff" font-size="62" font-family="Merriweather-Bold, Merriweather" font-weight="700" letter-spacing="-0.025em"><tspan x="-20" y="0">L</tspan></text>
    <text id="O" transform="matrix(0.985, 0.174, -0.174, 0.985, 703.454, 817.452)" fill="#fff" font-size="61" font-family="Merriweather-Bold, Merriweather" font-weight="700" letter-spacing="-0.025em"><tspan x="-22" y="0">O</tspan></text>
    <text id="K" transform="matrix(0.996, 0.087, -0.087, 0.996, 800.749, 830.198)" fill="#fff" font-size="64" font-family="Merriweather-Bold, Merriweather" font-weight="700" letter-spacing="-0.025em"><tspan x="-24" y="0">K</tspan></text>
    <text id="S" transform="translate(892.09 835.844)" fill="#fff" font-size="63" font-family="Merriweather-Bold, Merriweather" font-weight="700" letter-spacing="-0.025em"><tspan x="-19" y="0">S</tspan></text>
    <text id="A" transform="translate(974.09 839.844)" fill="#fff" font-size="64" font-family="Merriweather-Bold, Merriweather" font-weight="700" letter-spacing="-0.025em"><tspan x="-22" y="0">A</tspan></text>
    <text id="B" transform="matrix(0.996, -0.087, 0.087, 0.996, 1065.531, 829.531)" fill="#fff" font-size="63" font-family="Merriweather-Bold, Merriweather" font-weight="700" letter-spacing="-0.025em"><tspan x="-22" y="0">B</tspan></text>
    <text id="H" transform="matrix(0.985, -0.174, 0.174, 0.985, 1163.974, 815.283)" fill="#fff" font-size="60" font-family="Merriweather-Bold, Merriweather" font-weight="700" letter-spacing="-0.025em"><tspan x="-25" y="0">H</tspan></text>
    <text id="A-2" data-name="A" transform="matrix(0.966, -0.259, 0.259, 0.966, 1272.477, 794.421)" fill="#fff" font-size="64" font-family="Merriweather-Bold, Merriweather" font-weight="700" letter-spacing="-0.025em"><tspan x="-22" y="0">A</tspan></text>
  </g>
</svg>
