<svg xmlns="http://www.w3.org/2000/svg" width="307.851" height="117" viewBox="0 0 307.851 117">
  <g id="Group_48908" data-name="Group 48908" transform="translate(-804.075 -1552)">
    <g id="Group_48900" data-name="Group 48900" transform="translate(804.074 1625.985)">
      <path id="Path_8233" data-name="Path 8233" d="M0,20.821V18.947l2.243-.369V2.257L.027,1.833V0H9.316V1.833l-2.75.424V18.522l5.732-.287,1.724-5.116,2.668.356-.876,7.346Z" transform="matrix(0.966, 0.259, -0.259, 0.966, 5.389, 1.352)" fill="#b00020"/>
      <path id="Path_8232" data-name="Path 8232" d="M9.33,21.4a10.319,10.319,0,0,1-4.138-.711,7.541,7.541,0,0,1-2.907-2.107A8.991,8.991,0,0,1,.568,15.26,15.564,15.564,0,0,1,0,10.9,13.626,13.626,0,0,1,.7,6.416a10.01,10.01,0,0,1,1.977-3.44A8.681,8.681,0,0,1,5.746.773,9.95,9.95,0,0,1,9.726,0a10.7,10.7,0,0,1,4.152.732,7.328,7.328,0,0,1,2.873,2.1,8.859,8.859,0,0,1,1.669,3.3,16.153,16.153,0,0,1,.54,4.343,13.626,13.626,0,0,1-.7,4.487A10.056,10.056,0,0,1,16.3,18.4a8.708,8.708,0,0,1-3.037,2.2A9.816,9.816,0,0,1,9.33,21.4ZM9.494,1.874a3.641,3.641,0,0,0-1.977.554A4.487,4.487,0,0,0,6.012,4.1a9.7,9.7,0,0,0-.958,2.818,20.68,20.68,0,0,0-.335,3.967,20.2,20.2,0,0,0,.328,3.919,8.666,8.666,0,0,0,.944,2.681,4.02,4.02,0,0,0,1.491,1.532,4.02,4.02,0,0,0,1.984.486,3.574,3.574,0,0,0,1.97-.561,4.572,4.572,0,0,0,1.5-1.683,9.7,9.7,0,0,0,.958-2.811,20.572,20.572,0,0,0,.335-3.96A20.032,20.032,0,0,0,13.9,6.6a8.791,8.791,0,0,0-.937-2.681,4.081,4.081,0,0,0-1.484-1.546A3.932,3.932,0,0,0,9.494,1.874Z" transform="matrix(0.985, 0.174, -0.174, 0.985, 46.522, 10.756)" fill="#b00020"/>
      <path id="Path_8231" data-name="Path 8231" d="M19.918,20.821H14.843q-.3,0-.718-.547a12.468,12.468,0,0,1-.91-1.423q-.492-.876-1.047-1.956T11.04,14.74q-.575-1.074-1.156-2.038a10.733,10.733,0,0,0-1.129-1.58L6.566,13.666v4.9l2.6.424v1.833H0V18.96l2.243-.4V2.257L.027,1.833V0h8.6V1.833l-2.066.424V11l7-8.741-2.189-.424L11.368,0h7.661V1.833l-2.367.424-5.28,5.91a9.388,9.388,0,0,1,1.4,1.525q.732.964,1.464,2.086t1.436,2.285q.7,1.163,1.306,2.141t1.074,1.642a2.571,2.571,0,0,0,.732.787l1.122.342Z" transform="matrix(0.996, 0.087, -0.087, 0.996, 86.223, 17.155)" fill="#b00020"/>
      <path id="Path_8229" data-name="Path 8229" d="M1.8,6.346A13.872,13.872,0,0,1-.541,6.162q-1.074-.185-1.936-.41t-1.477-.424A4.569,4.569,0,0,0-4.912,5.1L-4.68-.083h2.462l.6,3.393a3.26,3.26,0,0,0,1.19.739,5.382,5.382,0,0,0,2.038.342,5.137,5.137,0,0,0,1.628-.226,2.84,2.84,0,0,0,1.088-.629,2.358,2.358,0,0,0,.6-.944,3.594,3.594,0,0,0,.185-1.17A2.7,2.7,0,0,0,4.8.115,3.978,3.978,0,0,0,3.9-.979a8.384,8.384,0,0,0-1.436-.985Q1.613-2.436.546-2.956q-.821-.383-1.744-.93A8.355,8.355,0,0,1-2.9-5.227a7.009,7.009,0,0,1-1.3-1.86,5.589,5.589,0,0,1-.52-2.476,5.024,5.024,0,0,1,.458-2.12A4.9,4.9,0,0,1-2.9-13.428,6.8,6.8,0,0,1-.658-14.611a10.01,10.01,0,0,1,3.105-.438,12.311,12.311,0,0,1,1.847.137q.9.137,1.683.308t1.375.335q.6.164.91.219l-.178,4.72H5.676l-.561-3.105a1.261,1.261,0,0,0-.363-.253,4.032,4.032,0,0,0-.588-.239,5.213,5.213,0,0,0-.732-.178,4.742,4.742,0,0,0-.807-.068,4.984,4.984,0,0,0-1.45.185,2.536,2.536,0,0,0-.978.527,2.084,2.084,0,0,0-.554.807A2.851,2.851,0,0,0-.535-10.63a2.728,2.728,0,0,0,.356,1.4A4.127,4.127,0,0,0,.813-8.106a9.856,9.856,0,0,0,1.512.985q.876.472,1.915.992.9.451,1.847,1.019A9.963,9.963,0,0,1,7.81-3.8,6.349,6.349,0,0,1,9.082-2.121,4.6,4.6,0,0,1,9.575.04a6.2,6.2,0,0,1-.424,2.2A5.66,5.66,0,0,1,7.8,4.281,6.983,6.983,0,0,1,5.389,5.772,9.91,9.91,0,0,1,1.8,6.346Z" transform="translate(130.409 35.582)" fill="#b00020"/>
      <path id="Path_8230" data-name="Path 8230" d="M-7.52,5.981l-.014-1.874,1.765-.383L.824-14.922H5.215L11.8,3.724l1.9.383V5.981H4.819V4.107l2.23-.383L6.022.386H-1.406l-.971,3.352,2.257.369V5.981ZM1.754-10.572-.79-1.748H5.366L2.671-10.572l-.479-2Z" transform="translate(165.779 37.034)" fill="#b00020"/>
      <path id="Path_8228" data-name="Path 8228" d="M0,21V19.124l2.243-.369V2.435L.027,2.011V.178H4.364q.684,0,1.245-.027T6.676.089Q7.182.055,7.681.027T8.741,0A11.266,11.266,0,0,1,14.5,1.135a3.894,3.894,0,0,1,1.833,3.57A5.869,5.869,0,0,1,16,6.758a4.825,4.825,0,0,1-.923,1.559,4.708,4.708,0,0,1-1.4,1.067,5.965,5.965,0,0,1-1.772.561,8.07,8.07,0,0,1,2.312.349,5.856,5.856,0,0,1,1.881.958,4.538,4.538,0,0,1,1.259,1.5,4.254,4.254,0,0,1,.458,1.99,7.344,7.344,0,0,1-.4,2.4A4.936,4.936,0,0,1,16.04,19.2a7.046,7.046,0,0,1-2.627,1.43,13.691,13.691,0,0,1-4.152.534q-.547,0-1.06-.027t-1.088-.055q-.575-.027-1.245-.055T4.309,21ZM6.566,1.984v7.2q.192.027.506.048t.65.027q.335.007.663.007h.561a3.683,3.683,0,0,0,1.443-.253,2.31,2.31,0,0,0,.964-.746,3.1,3.1,0,0,0,.527-1.224,8.1,8.1,0,0,0,.157-1.689A5.822,5.822,0,0,0,11.854,3.8,2.471,2.471,0,0,0,11.245,2.7a2.6,2.6,0,0,0-1.122-.643,5.892,5.892,0,0,0-1.7-.212A10.8,10.8,0,0,0,7.312,1.9Q6.785,1.956,6.566,1.984Zm0,9.207v7.839a1.306,1.306,0,0,0,.369.116q.246.048.54.075t.622.041q.328.014.616.014a6.819,6.819,0,0,0,2.093-.28,3.6,3.6,0,0,0,1.409-.807,3.12,3.12,0,0,0,.8-1.293,5.527,5.527,0,0,0,.253-1.737,6.294,6.294,0,0,0-.239-1.86,2.808,2.808,0,0,0-.752-1.245,3.075,3.075,0,0,0-1.313-.7,7.3,7.3,0,0,0-1.908-.219H8.447q-.363,0-.732.007t-.684.021Q6.717,11.176,6.566,11.19Z" transform="matrix(0.996, -0.087, 0.087, 0.996, 197.134, 18.591)" fill="#b00020"/>
      <path id="Path_8226" data-name="Path 8226" d="M0,20.821V18.947l2.23-.383V2.257L.041,1.833V0H8.892V1.833l-2.339.424V9.111h8.167V2.257L12.5,1.833V0h8.728V1.833l-2.189.424v16.32l2.189.369v1.874h-8.7V18.947l2.189-.383V11.272H6.553v7.291l2.339.383v1.874Z" transform="matrix(0.985, -0.174, 0.174, 0.985, 236.441, 13.868)" fill="#b00020"/>
      <path id="Path_8227" data-name="Path 8227" d="M.014,20.9,0,19.029l1.765-.383L8.358,0H12.75l6.58,18.646,1.9.383V20.9H12.353V19.029l2.23-.383-1.026-3.338H6.129l-.971,3.352,2.257.369V20.9ZM9.289,4.35,6.744,13.174H12.9L10.205,4.35l-.479-2Z" transform="matrix(0.966, -0.259, 0.259, 0.966, 281.933, 5.495)" fill="#b00020"/>
    </g>
    <g id="Group_48901" data-name="Group 48901" transform="translate(920.479 1552)">
      <circle id="Ellipse_101" data-name="Ellipse 101" cx="37" cy="37" r="37" transform="translate(0 0)" fill="#b00020"/>
      <text id="_1st" data-name="1st" transform="translate(20 51)" fill="#fff" font-size="40" font-family="Merriweather-Bold, Merriweather" font-weight="700" letter-spacing="-0.025em"><tspan x="0" y="0">1</tspan><tspan y="0" font-size="23.332" baseline-shift="13.331999778747559">st</tspan></text>
    </g>
  </g>
</svg>
