<svg xmlns="http://www.w3.org/2000/svg" width="19.051" height="19.051" viewBox="0 0 19.051 19.051">
  <g id="noun-loading-1950876" transform="matrix(0.819, 0.574, -0.574, 0.819, -147.7, -597.073)">
    <path id="Path_1144" data-name="Path 1144" d="M208.816,133.331a.238.238,0,0,0,.218.256l2.68.214a.239.239,0,0,0,.255-.215h0v0l.2-2.427h0c0-.007,0-.013,0-.02a.238.238,0,0,0-.474-.02l-.152,1.792a5.984,5.984,0,0,0-4.586-2.292,6.339,6.339,0,1,0,6.339,6.339.238.238,0,1,0-.475,0,5.864,5.864,0,1,1-5.864-5.864,5.61,5.61,0,0,1,4.273,2.193l-2.164-.173h0a.24.24,0,0,0-.256.218Z" transform="translate(269.758 269.758)" stroke="#000" stroke-width="1"/>
  </g>
</svg>
