<svg xmlns="http://www.w3.org/2000/svg" width="25.866" height="25.383" viewBox="0 0 25.866 25.383">
  <g id="Group_3094" data-name="Group 3094" transform="translate(-1119.001 -17720.008)">
    <g id="noun-wrong-2977822" transform="translate(1048.301 17706.785)">
      <path id="Path_1141" data-name="Path 1141" d="M96.137,13.223A12.808,12.808,0,0,1,109.086,25.9,12.936,12.936,0,1,1,96.137,13.223Z" transform="translate(-12.52 0)" fill-rule="evenodd"/>
    </g>
    <g id="noun-wrong-2977822-2" data-name="noun-wrong-2977822" transform="translate(1048.316 17706.785)">
      <path id="Path_1141-2" data-name="Path 1141" d="M89.951,20.331,95.624,25.9l-5.673,5.567c.16.189.353.346.513.5L96.137,26.4l5.673,5.567a3.835,3.835,0,0,0,.513-.5L96.65,25.9l5.673-5.567c-.16-.157-.321-.346-.513-.5l-5.673,5.567-5.673-5.567Z" transform="translate(-12.52 0)" fill="#fff" stroke="#fff" stroke-width="1" fill-rule="evenodd"/>
    </g>
  </g>
</svg>
