<svg xmlns="http://www.w3.org/2000/svg" width="25.576" height="25.576" viewBox="0 0 25.576 25.576">
  <g id="Group_3086" data-name="Group 3086" transform="translate(-1118.424 -17926.008)">
    <path id="noun-tick-5153459" d="M109.04,26.25a12.788,12.788,0,1,0,12.786,12.786A12.8,12.8,0,0,0,109.04,26.25Z" transform="translate(1022.174 17899.758)" fill-rule="evenodd"/>
    <path id="noun-tick-5153459-2" data-name="noun-tick-5153459" d="M114.372,34.46l-2.3,2.675L107.3,42.676l-3.606-3.721a.441.441,0,1,0-.635.611L107,43.637h0a.441.441,0,0,0,.651-.02l7.39-8.581a.441.441,0,0,0-.046-.622A.815.815,0,0,0,114.372,34.46Z" transform="translate(1022.174 17899.758)" fill="#fff" stroke="#fff" stroke-width="1" fill-rule="evenodd"/>
  </g>
</svg>
